<?xml version="1.0" encoding="UTF-8" standalone="no"?><svg xmlns="http://www.w3.org/2000/svg" xmlns:xlink="http://www.w3.org/1999/xlink" contentScriptType="application/ecmascript" contentStyleType="text/css" height="218.75px" preserveAspectRatio="none" style="width:445px;height:218px;background:#333333;" version="1.1" viewBox="0 0 445 218" width="445.8333px" zoomAndPan="magnify"><defs/><g><rect fill="#48494B" height="41.2028" rx="8.3333" ry="8.3333" style="stroke:#545454;stroke-width:1.0416666666666667;" width="433.3333" x="2.0833" y="2.0833"/><text fill="#C0C0C0" font-family="Open Sans,Avenir,Nunito,Arial,Helvetica,SansSerif" font-size="20.8333" lengthAdjust="spacing" textLength="410.4167" x="13.5417" y="30.5583">com.telenav.lexakai.annotations.visibility</text><!--MD5=[761b175fdb4374cec70195b8c13168bb]
class UmlExcludeMember--><rect codeLine="6" fill="#282828" height="48.055" id="UmlExcludeMember" rx="8.3333" ry="8.3333" style="stroke:#5E5E5E;stroke-width:1.0416666666666667;" width="164.5833" x="31.7708" y="53.7028"/><rect fill="#1B1B1A" height="31.3883" rx="8.3333" ry="8.3333" style="stroke:#1B1B1A;stroke-width:1.0416666666666667;" width="164.5833" x="31.7708" y="53.7028"/><rect fill="#1B1B1A" height="8.3333" style="stroke:#1B1B1A;stroke-width:1.0416666666666667;" width="164.5833" x="31.7708" y="76.7578"/><rect codeLine="6" fill="none" height="48.055" id="UmlExcludeMember" rx="8.3333" ry="8.3333" style="stroke:#5E5E5E;stroke-width:1.0416666666666667;" width="164.5833" x="31.7708" y="53.7028"/><ellipse cx="46.3542" cy="69.397" fill="#3380B9" rx="10.4167" ry="10.4167" style="stroke:#004D86;stroke-width:1.0416666666666667;"/><path d="M47.6054,69.7164 Q47.6054,69.0267 47.2941,68.6361 Q46.9828,68.2454 46.4396,68.2454 Q45.8964,68.2454 45.5882,68.6361 Q45.2799,69.0267 45.2799,69.7164 Q45.2799,70.4122 45.5882,70.8028 Q45.8964,71.1934 46.4396,71.1934 Q46.9828,71.1934 47.2941,70.8028 Q47.6054,70.4122 47.6054,69.7164 Z M48.7406,72.2188 L47.5444,72.2188 L47.5444,71.7183 Q47.3124,72.0418 46.9981,72.1914 Q46.6838,72.3409 46.2443,72.3409 Q45.2433,72.3409 44.6299,71.6207 Q44.0165,70.9005 44.0165,69.7164 Q44.0165,68.5384 44.6269,67.8212 Q45.2372,67.1041 46.2443,67.1041 Q46.6777,67.1041 47.0072,67.2536 Q47.3368,67.4032 47.5444,67.69 L47.5444,67.4398 Q47.5444,66.6097 47.0896,66.158 Q46.6349,65.7064 45.7926,65.7064 Q44.5231,65.7064 43.7205,66.8233 Q42.9179,67.9403 42.9179,69.7286 Q42.9179,71.6024 43.8456,72.7102 Q44.7734,73.818 46.3175,73.818 Q46.8058,73.818 47.2636,73.6745 Q47.7214,73.5311 48.1425,73.2442 L48.704,74.3184 Q48.2096,74.6541 47.6267,74.822 Q47.0439,74.9898 46.3786,74.9898 Q44.2424,74.9898 42.9728,73.5677 Q41.7033,72.1456 41.7033,69.7286 Q41.7033,67.3665 42.8446,65.9475 Q43.986,64.5284 45.8659,64.5284 Q47.1965,64.5284 47.9685,65.331 Q48.7406,66.1336 48.7406,67.5191 Z " fill="#000000"/><text fill="#D8BC00" font-family="Open Sans,Avenir,Nunito,Arial,Helvetica,SansSerif" font-size="12.5" font-weight="bold" lengthAdjust="spacing" textLength="127.0833" x="63.0208" y="74.1211">UmlExcludeMember</text><line style="stroke:#5E5E5E;stroke-width:1.0416666666666667;" x1="32.8125" x2="195.3125" y1="85.0911" y2="85.0911"/><line style="stroke:#5E5E5E;stroke-width:1.0416666666666667;" x1="32.8125" x2="195.3125" y1="93.4245" y2="93.4245"/><!--MD5=[e851a8f319a38e158301054ce27155ed]
class UmlExcludeSuperTypes--><rect codeLine="8" fill="#282828" height="48.055" id="UmlExcludeSuperTypes" rx="8.3333" ry="8.3333" style="stroke:#5E5E5E;stroke-width:1.0416666666666667;" width="187.5" x="232.8125" y="53.7028"/><rect fill="#1B1B1A" height="31.3883" rx="8.3333" ry="8.3333" style="stroke:#1B1B1A;stroke-width:1.0416666666666667;" width="187.5" x="232.8125" y="53.7028"/><rect fill="#1B1B1A" height="8.3333" style="stroke:#1B1B1A;stroke-width:1.0416666666666667;" width="187.5" x="232.8125" y="76.7578"/><rect codeLine="8" fill="none" height="48.055" id="UmlExcludeSuperTypes" rx="8.3333" ry="8.3333" style="stroke:#5E5E5E;stroke-width:1.0416666666666667;" width="187.5" x="232.8125" y="53.7028"/><ellipse cx="247.3958" cy="69.397" fill="#3380B9" rx="10.4167" ry="10.4167" style="stroke:#004D86;stroke-width:1.0416666666666667;"/><path d="M248.6471,69.7164 Q248.6471,69.0267 248.3358,68.6361 Q248.0245,68.2454 247.4813,68.2454 Q246.9381,68.2454 246.6298,68.6361 Q246.3216,69.0267 246.3216,69.7164 Q246.3216,70.4122 246.6298,70.8028 Q246.9381,71.1934 247.4813,71.1934 Q248.0245,71.1934 248.3358,70.8028 Q248.6471,70.4122 248.6471,69.7164 Z M249.7823,72.2188 L248.586,72.2188 L248.586,71.7183 Q248.3541,72.0418 248.0398,72.1914 Q247.7254,72.3409 247.286,72.3409 Q246.285,72.3409 245.6716,71.6207 Q245.0582,70.9005 245.0582,69.7164 Q245.0582,68.5384 245.6685,67.8212 Q246.2789,67.1041 247.286,67.1041 Q247.7193,67.1041 248.0489,67.2536 Q248.3785,67.4032 248.586,67.69 L248.586,67.4398 Q248.586,66.6097 248.1313,66.158 Q247.6766,65.7064 246.8343,65.7064 Q245.5648,65.7064 244.7622,66.8233 Q243.9596,67.9403 243.9596,69.7286 Q243.9596,71.6024 244.8873,72.7102 Q245.815,73.818 247.3592,73.818 Q247.8475,73.818 248.3053,73.6745 Q248.763,73.5311 249.1842,73.2442 L249.7457,74.3184 Q249.2513,74.6541 248.6684,74.822 Q248.0855,74.9898 247.4202,74.9898 Q245.284,74.9898 244.0145,73.5677 Q242.745,72.1456 242.745,69.7286 Q242.745,67.3665 243.8863,65.9475 Q245.0277,64.5284 246.9076,64.5284 Q248.2381,64.5284 249.0102,65.331 Q249.7823,66.1336 249.7823,67.5191 Z " fill="#000000"/><text fill="#D8BC00" font-family="Open Sans,Avenir,Nunito,Arial,Helvetica,SansSerif" font-size="12.5" font-weight="bold" lengthAdjust="spacing" textLength="150" x="264.0625" y="74.1211">UmlExcludeSuperTypes</text><line style="stroke:#5E5E5E;stroke-width:1.0416666666666667;" x1="233.8542" x2="419.2708" y1="85.0911" y2="85.0911"/><line style="stroke:#5E5E5E;stroke-width:1.0416666666666667;" x1="233.8542" x2="419.2708" y1="93.4245" y2="93.4245"/><!--MD5=[45dcb5346f6d75d3b02982c141830ba1]
class UmlIncludeMember--><rect codeLine="10" fill="#282828" height="48.055" id="UmlIncludeMember" rx="8.3333" ry="8.3333" style="stroke:#5E5E5E;stroke-width:1.0416666666666667;" width="162.5" x="32.8125" y="164.1195"/><rect fill="#1B1B1A" height="31.3883" rx="8.3333" ry="8.3333" style="stroke:#1B1B1A;stroke-width:1.0416666666666667;" width="162.5" x="32.8125" y="164.1195"/><rect fill="#1B1B1A" height="8.3333" style="stroke:#1B1B1A;stroke-width:1.0416666666666667;" width="162.5" x="32.8125" y="187.1745"/><rect codeLine="10" fill="none" height="48.055" id="UmlIncludeMember" rx="8.3333" ry="8.3333" style="stroke:#5E5E5E;stroke-width:1.0416666666666667;" width="162.5" x="32.8125" y="164.1195"/><ellipse cx="47.3958" cy="179.8136" fill="#3380B9" rx="10.4167" ry="10.4167" style="stroke:#004D86;stroke-width:1.0416666666666667;"/><path d="M48.6471,180.1331 Q48.6471,179.4434 48.3358,179.0527 Q48.0245,178.6621 47.4813,178.6621 Q46.9381,178.6621 46.6298,179.0527 Q46.3216,179.4434 46.3216,180.1331 Q46.3216,180.8289 46.6298,181.2195 Q46.9381,181.6101 47.4813,181.6101 Q48.0245,181.6101 48.3358,181.2195 Q48.6471,180.8289 48.6471,180.1331 Z M49.7823,182.6355 L48.586,182.6355 L48.586,182.135 Q48.3541,182.4585 48.0398,182.608 Q47.7254,182.7576 47.286,182.7576 Q46.285,182.7576 45.6716,182.0374 Q45.0582,181.3171 45.0582,180.1331 Q45.0582,178.9551 45.6685,178.2379 Q46.2789,177.5208 47.286,177.5208 Q47.7193,177.5208 48.0489,177.6703 Q48.3785,177.8198 48.586,178.1067 L48.586,177.8564 Q48.586,177.0264 48.1313,176.5747 Q47.6766,176.123 46.8343,176.123 Q45.5648,176.123 44.7622,177.24 Q43.9596,178.3569 43.9596,180.1453 Q43.9596,182.019 44.8873,183.1268 Q45.815,184.2346 47.3592,184.2346 Q47.8475,184.2346 48.3053,184.0912 Q48.763,183.9478 49.1842,183.6609 L49.7457,184.7351 Q49.2513,185.0708 48.6684,185.2386 Q48.0855,185.4065 47.4202,185.4065 Q45.284,185.4065 44.0145,183.9844 Q42.745,182.5623 42.745,180.1453 Q42.745,177.7832 43.8863,176.3641 Q45.0277,174.9451 46.9076,174.9451 Q48.2381,174.9451 49.0102,175.7477 Q49.7823,176.5503 49.7823,177.9358 Z " fill="#000000"/><text fill="#D8BC00" font-family="Open Sans,Avenir,Nunito,Arial,Helvetica,SansSerif" font-size="12.5" font-weight="bold" lengthAdjust="spacing" textLength="125" x="64.0625" y="184.5378">UmlIncludeMember</text><line style="stroke:#5E5E5E;stroke-width:1.0416666666666667;" x1="33.8542" x2="194.2708" y1="195.5078" y2="195.5078"/><line style="stroke:#5E5E5E;stroke-width:1.0416666666666667;" x1="33.8542" x2="194.2708" y1="203.8411" y2="203.8411"/><!--MD5=[210f6792c6bffc41ef607f7340f8b313]
class UmlNotPublicApi--><rect codeLine="12" fill="#282828" height="48.055" id="UmlNotPublicApi" rx="8.3333" ry="8.3333" style="stroke:#5E5E5E;stroke-width:1.0416666666666667;" width="146.875" x="232.2917" y="164.1195"/><rect fill="#1B1B1A" height="31.3883" rx="8.3333" ry="8.3333" style="stroke:#1B1B1A;stroke-width:1.0416666666666667;" width="146.875" x="232.2917" y="164.1195"/><rect fill="#1B1B1A" height="8.3333" style="stroke:#1B1B1A;stroke-width:1.0416666666666667;" width="146.875" x="232.2917" y="187.1745"/><rect codeLine="12" fill="none" height="48.055" id="UmlNotPublicApi" rx="8.3333" ry="8.3333" style="stroke:#5E5E5E;stroke-width:1.0416666666666667;" width="146.875" x="232.2917" y="164.1195"/><ellipse cx="246.875" cy="179.8136" fill="#3380B9" rx="10.4167" ry="10.4167" style="stroke:#004D86;stroke-width:1.0416666666666667;"/><path d="M248.1262,180.1331 Q248.1262,179.4434 247.8149,179.0527 Q247.5037,178.6621 246.9604,178.6621 Q246.4172,178.6621 246.109,179.0527 Q245.8008,179.4434 245.8008,180.1331 Q245.8008,180.8289 246.109,181.2195 Q246.4172,181.6101 246.9604,181.6101 Q247.5037,181.6101 247.8149,181.2195 Q248.1262,180.8289 248.1262,180.1331 Z M249.2615,182.6355 L248.0652,182.6355 L248.0652,182.135 Q247.8333,182.4585 247.5189,182.608 Q247.2046,182.7576 246.7651,182.7576 Q245.7642,182.7576 245.1508,182.0374 Q244.5374,181.3171 244.5374,180.1331 Q244.5374,178.9551 245.1477,178.2379 Q245.7581,177.5208 246.7651,177.5208 Q247.1985,177.5208 247.5281,177.6703 Q247.8577,177.8198 248.0652,178.1067 L248.0652,177.8564 Q248.0652,177.0264 247.6105,176.5747 Q247.1558,176.123 246.3135,176.123 Q245.0439,176.123 244.2413,177.24 Q243.4387,178.3569 243.4387,180.1453 Q243.4387,182.019 244.3665,183.1268 Q245.2942,184.2346 246.8384,184.2346 Q247.3267,184.2346 247.7844,184.0912 Q248.2422,183.9478 248.6633,183.6609 L249.2249,184.7351 Q248.7305,185.0708 248.1476,185.2386 Q247.5647,185.4065 246.8994,185.4065 Q244.7632,185.4065 243.4937,183.9844 Q242.2241,182.5623 242.2241,180.1453 Q242.2241,177.7832 243.3655,176.3641 Q244.5068,174.9451 246.3867,174.9451 Q247.7173,174.9451 248.4894,175.7477 Q249.2615,176.5503 249.2615,177.9358 Z " fill="#000000"/><text fill="#D8BC00" font-family="Open Sans,Avenir,Nunito,Arial,Helvetica,SansSerif" font-size="12.5" font-weight="bold" lengthAdjust="spacing" textLength="109.375" x="263.5417" y="184.5378">UmlNotPublicApi</text><line style="stroke:#5E5E5E;stroke-width:1.0416666666666667;" x1="233.3333" x2="378.125" y1="195.5078" y2="195.5078"/><line style="stroke:#5E5E5E;stroke-width:1.0416666666666667;" x1="233.3333" x2="378.125" y1="203.8411" y2="203.8411"/><!--MD5=[8cd8e718b1d662d5f7deb045a73df915]
link UmlExcludeMember to UmlExcludeSuperTypes--><!--MD5=[b66222673af9f2516a35f0f24a7650a4]
link UmlExcludeMember to UmlIncludeMember--><!--MD5=[c45a02515dbfc395404ac541cbab564a]
link UmlIncludeMember to UmlNotPublicApi--><!--MD5=[e204ff717a0741ee84a31eaa2bb639df]
@startuml

    !include ../lexakai.theme
    
    title "com.telenav.lexakai.annotations.visibility"
    
    annotation UmlExcludeMember
    
    annotation UmlExcludeSuperTypes
    
    annotation UmlIncludeMember
    
    annotation UmlNotPublicApi
    
@enduml

@startuml









skinparam backgroundColor #333333






skinparam  {
    defaultFontName   "Open Sans,Avenir,Nunito,Arial,Helvetica,SansSerif"
    defaultFontSize   12
    defaultTextAlignment left
    shadowing false
    RoundCorner 10
    TitleFontSize 18
}

skinparam defaultFontName       "Open Sans,Avenir,Nunito,Arial,Helvetica,SansSerif"
skinparam defaultFontSize       12
skinparam dpi                   100
skinparam shadowing             false
skinparam roundcorner           16
skinparam ParticipantPadding    40
skinparam BoxPadding            40
skinparam Padding               3
skinparam ArrowColor            #545454
skinparam stereotype {
    CBackgroundColor #0066cf
    CBorderColor #0086ef
    ABackgroundColor #C8Ac00
    ABorderColor #D8Bc00
    IBackgroundColor #008400
    IBorderColor #239c23
    EBackgroundColor #cf6300
    EBorderColor #ef8300
    NBackgroundColor #3380b9
    NBorderColor #004d86
}
skinparam title {
	FontColor	                 #c0c0c0
 	BorderColor                  #545454
	FontSize	    	         20
	BorderRoundCorner            16
	BorderThickness 	         1
	BackgroundColor              #48494b
}


skinparam legend {
	BackgroundColor #303030
	BorderColor #404040
	FontColor #a0a0a0
}

	skinparam swimlane {
	BorderColor #5e5e5e
	BorderThickness 2
	TitleBackgroundColor  #6d6d6d-#484848
	TitleFontColor #303030
}

skinparam activity {
		FontColor #C8Ac00
	BorderColor #333333
	BackgroundColor #333333-#333333
	BarColor #00FF00
	StartColor #0060a8
	EndColor #0060a8
	DiamondBackgroundColor #6d6d6d-#3a3a3a
  	DiamondBorderColor #3a3a3a
  	DiamondFontColor #fefefe
}


skinparam participant {
		FontColor #C8Ac00
	BorderColor #333333
	BackgroundColor #333333-#333333
	ParticipantBorderThickness 2
}


skinparam actor {
		FontColor #C8Ac00
	BorderColor #333333
	BackgroundColor #333333-#333333
}


skinparam arrow {
	Thickness 1.5
	Color #545454
	FontColor #a0a0a0
    FontStyle bold
    MessageAlignment center
}



skinparam sequence {
	BorderColor #303030
	TitleFontColor #303030
	BackgroundColor #333333
	StartColor #303030
	EndColor #303030
	BoxBackgroundColor #333333
	BoxBorderColor #484848
	BoxFontColor #484848
	LifeLineBorderColor #484848
	LifeLineBorderThickness 2
	LifeLineBackgroundColor #3a3a3a
	GroupBorderColor #484848
	GroupFontColor #484848
	GroupHeaderFontColor #0060a8
	GroupBackgroundColor #484848
	GroupHeaderBackgroundColor #333333
	DividerBackgroundColor #484848
    DividerBorderColor #484848
    DividerBorderThickness 2
    DividerFontColor #D8Bc00
	ReferenceBackgroundColor #333333
	ReferenceBorderColor #484848
	ReferenceFontColor #fefefe
	ReferenceHeaderBackgroundColor #484848
}


skinparam partition {
	BorderColor #303030
	FontColor #333333
	BackgroundColor #333333
}


skinparam collections {
		FontColor #C8Ac00
	BorderColor #333333
	BackgroundColor #333333-#333333
}


skinparam control {
		FontColor #C8Ac00
	BorderColor #333333
	BackgroundColor #333333-#333333
}


skinparam entity {
		FontColor #C8Ac00
	BorderColor #333333
	BackgroundColor #333333-#333333
}


skinparam boundary {
		FontColor #C8Ac00
	BorderColor #333333
	BackgroundColor #333333-#333333
}


skinparam agent {
	BackgroundColor #ff8000
	BorderColor #ff9933
	FontColor #484848
}


skinparam note {
	BorderThickness 1
	BackgroundColor #1b1b1a
	BorderColor #5e5e5e
	FontSize 11
	FontColor #a0a0a0
}


skinparam artifact {
	BorderThickness 10
	BorderColor #5e5e5e
	BackgroundColor #1b1b1a
	FontColor #D8Bc00
}


skinparam component {
		FontColor #C8Ac00
	BorderColor #333333
	BackgroundColor #333333-#333333
}


skinparam interface {
	BackgroundColor  #008400
	BorderColor  #007F00
	FontColor #484848
}


skinparam storage {
	BackgroundColor #ff8000
  	BorderColor #cc6600
	FontColor #222222
}


skinparam node {
	BackgroundColor #333333
	BorderColor #333333
	FontColor #C8Ac00
}


skinparam cloud {
	BackgroundColor #484848-black
	BorderColor #484848
	FontColor #D8Bc00
}


skinparam database {
		FontColor #C8Ac00
	BorderColor #333333
	BackgroundColor #333333-#333333
	BackgroundColor  #333333
}


skinparam class {
		FontColor #C8Ac00
	BorderColor #333333
	BackgroundColor #333333-#333333
	HeaderBackgroundColor #1b1b1a
    BackgroundColor #282828
    BorderColor #5e5e5e
 	StereotypeFontColor #a0a0a0
    StereotypeFontStyle bold
	BorderThickness 1
	AttributeFontColor #D8Bc00
	AttributeFontSize 11
    FontColor #D8Bc00
    FontStyle bold
}


skinparam object {
		FontColor #C8Ac00
	BorderColor #333333
	BackgroundColor #333333-#333333
	StereotypeFontColor #484848
	BorderThickness 1
	AttributeFontColor #fefefe
	AttributeFontSize 11
}


skinparam usecase {
		FontColor #C8Ac00
	BorderColor #333333
	BackgroundColor #333333-#333333
	BorderThickness 2
	StereotypeFontColor #303030
}


skinparam rectangle {
		FontColor #C8Ac00
	BorderColor #333333
	BackgroundColor #333333-#333333
	BackgroundColor #333333
	BorderThickness 2
	StereotypeFontColor #303030
}


skinparam package {
		FontColor #C8Ac00
	BorderColor #333333
	BackgroundColor #333333-#333333
	BackgroundColor #333333
	BorderThickness 2
}


skinparam folder {
	BackgroundColor #6d6d6d
  	BorderColor #ff8000
	FontColor #ff8000
	BorderThickness 2
}


skinparam frame {
	BackgroundColor #6d6d6d
  	BorderColor #0060a8
	FontColor #0060a8
	BorderThickness 2
}


skinparam state {
		FontColor #C8Ac00
	BorderColor #333333
	BackgroundColor #333333-#333333
	StartColor #0060a8
	EndColor #0060a8
	AttributeFontColor #fefefe
	AttributeFontSize 11
}


skinparam queue {
		FontColor #C8Ac00
	BorderColor #333333
	BackgroundColor #333333-#333333
}


skinparam card {
	BackgroundColor #0060a8
	BorderColor #004d86
	FontColor $INFO_TEXT
}


skinparam file {
	BackgroundColor #6d6d6d-#484848
	BorderColor #0060a8
	FontColor #fefefe
}


skinparam stack {
		FontColor #C8Ac00
	BorderColor #333333
	BackgroundColor #333333-#333333
}

    
    title "com.telenav.lexakai.annotations.visibility"
    
    annotation UmlExcludeMember
    
    annotation UmlExcludeSuperTypes
    
    annotation UmlIncludeMember
    
    annotation UmlNotPublicApi
    
@enduml

PlantUML version 1.2021.01(Tue Feb 02 00:55:08 MST 2021)
(GPL source distribution)
Java Runtime: Java(TM) SE Runtime Environment
JVM: Java HotSpot(TM) 64-Bit Server VM
Default Encoding: UTF-8
Language: en
Country: US
--></g></svg>