<?xml version="1.0" encoding="UTF-8" standalone="no"?><svg xmlns="http://www.w3.org/2000/svg" xmlns:xlink="http://www.w3.org/1999/xlink" contentScriptType="application/ecmascript" contentStyleType="text/css" height="337.5px" preserveAspectRatio="none" style="width:493px;height:337px;background:#333333;" version="1.1" viewBox="0 0 493 337" width="493.75px" zoomAndPan="magnify"><defs/><g><rect fill="#48494B" height="41.2028" rx="8.3333" ry="8.3333" style="stroke:#545454;stroke-width:1.0416666666666667;" width="343.75" x="67.7083" y="2.0833"/><text fill="#C0C0C0" font-family="Open Sans,Avenir,Nunito,Arial,Helvetica,SansSerif" font-size="20.8333" lengthAdjust="spacing" textLength="320.8333" x="79.1667" y="30.5583">com.telenav.lexakai.annotations</text><!--MD5=[d0079b741f6174c4159a5974a481e5d9]
cluster UmlNote--><polygon fill="#333333" points="369.7917,52.6611,438.5417,52.6611,445.8333,79.8828,476.0417,79.8828,476.0417,237.0361,369.7917,237.0361,369.7917,52.6611" style="stroke:#333333;stroke-width:2.0833333333333335;"/><line style="stroke:#333333;stroke-width:2.0833333333333335;" x1="369.7917" x2="445.8333" y1="79.8828" y2="79.8828"/><text fill="#C8AC00" font-family="Open Sans,Avenir,Nunito,Arial,Helvetica,SansSerif" font-size="12.5" font-weight="bold" lengthAdjust="spacing" textLength="56.25" x="377.0833" y="69.9544">UmlNote</text><!--MD5=[f50f98d3d4fe9ef0d8df05cfc37f1377]
class UmlNote.Align--><rect codeLine="6" fill="#282828" height="127.0345" id="UmlNote.Align" rx="8.3333" ry="8.3333" style="stroke:#5E5E5E;stroke-width:1.0416666666666667;" width="71.875" x="386.9792" y="93.2861"/><rect fill="#1B1B1A" height="31.3883" rx="8.3333" ry="8.3333" style="stroke:#1B1B1A;stroke-width:1.0416666666666667;" width="71.875" x="386.9792" y="93.2861"/><rect fill="#1B1B1A" height="8.3333" style="stroke:#1B1B1A;stroke-width:1.0416666666666667;" width="71.875" x="386.9792" y="116.3411"/><rect codeLine="6" fill="none" height="127.0345" id="UmlNote.Align" rx="8.3333" ry="8.3333" style="stroke:#5E5E5E;stroke-width:1.0416666666666667;" width="71.875" x="386.9792" y="93.2861"/><ellipse cx="401.5625" cy="108.9803" fill="#CF6300" rx="10.4167" ry="10.4167" style="stroke:#EF8300;stroke-width:1.0416666666666667;"/><path d="M404.6183,113.6678 L398.9421,113.6678 L398.9421,104.5553 L404.6183,104.5553 L404.6183,106.1422 L400.7426,106.1422 L400.7426,108.1075 L404.2521,108.1075 L404.2521,109.6944 L400.7426,109.6944 L400.7426,112.0809 L404.6183,112.0809 Z " fill="#000000"/><text fill="#D8BC00" font-family="Open Sans,Avenir,Nunito,Arial,Helvetica,SansSerif" font-size="12.5" font-weight="bold" lengthAdjust="spacing" textLength="34.375" x="418.2292" y="113.7044">Align</text><line style="stroke:#5E5E5E;stroke-width:1.0416666666666667;" x1="388.0208" x2="457.8125" y1="124.6745" y2="124.6745"/><text fill="#D8BC00" font-family="Open Sans,Avenir,Nunito,Arial,Helvetica,SansSerif" font-size="11.4583" lengthAdjust="spacing" textLength="48.9583" x="396.3542" y="143.044">BOTTOM</text><text fill="#D8BC00" font-family="Open Sans,Avenir,Nunito,Arial,Helvetica,SansSerif" font-size="11.4583" lengthAdjust="spacing" textLength="26.0417" x="396.3542" y="162.7889">LEFT</text><text fill="#D8BC00" font-family="Open Sans,Avenir,Nunito,Arial,Helvetica,SansSerif" font-size="11.4583" lengthAdjust="spacing" textLength="34.375" x="396.3542" y="182.5338">RIGHT</text><text fill="#D8BC00" font-family="Open Sans,Avenir,Nunito,Arial,Helvetica,SansSerif" font-size="11.4583" lengthAdjust="spacing" textLength="22.9167" x="396.3542" y="202.2786">TOP</text><line style="stroke:#5E5E5E;stroke-width:1.0416666666666667;" x1="388.0208" x2="457.8125" y1="211.9873" y2="211.9873"/><!--MD5=[3e55801a34b7a541bce0b6b38475476f]
class UmlClassDiagram--><rect codeLine="14" fill="#282828" height="48.055" id="UmlClassDiagram" rx="8.3333" ry="8.3333" style="stroke:#5E5E5E;stroke-width:1.0416666666666667;" width="154.1667" x="7.2917" y="132.8695"/><rect fill="#1B1B1A" height="31.3883" rx="8.3333" ry="8.3333" style="stroke:#1B1B1A;stroke-width:1.0416666666666667;" width="154.1667" x="7.2917" y="132.8695"/><rect fill="#1B1B1A" height="8.3333" style="stroke:#1B1B1A;stroke-width:1.0416666666666667;" width="154.1667" x="7.2917" y="155.9245"/><rect codeLine="14" fill="none" height="48.055" id="UmlClassDiagram" rx="8.3333" ry="8.3333" style="stroke:#5E5E5E;stroke-width:1.0416666666666667;" width="154.1667" x="7.2917" y="132.8695"/><ellipse cx="21.875" cy="148.5636" fill="#3380B9" rx="10.4167" ry="10.4167" style="stroke:#004D86;stroke-width:1.0416666666666667;"/><path d="M23.1262,148.8831 Q23.1262,148.1934 22.8149,147.8027 Q22.5037,147.4121 21.9604,147.4121 Q21.4172,147.4121 21.109,147.8027 Q20.8008,148.1934 20.8008,148.8831 Q20.8008,149.5789 21.109,149.9695 Q21.4172,150.3601 21.9604,150.3601 Q22.5037,150.3601 22.8149,149.9695 Q23.1262,149.5789 23.1262,148.8831 Z M24.2615,151.3855 L23.0652,151.3855 L23.0652,150.885 Q22.8333,151.2085 22.5189,151.358 Q22.2046,151.5076 21.7651,151.5076 Q20.7642,151.5076 20.1508,150.7874 Q19.5374,150.0671 19.5374,148.8831 Q19.5374,147.7051 20.1477,146.9879 Q20.7581,146.2708 21.7651,146.2708 Q22.1985,146.2708 22.5281,146.4203 Q22.8577,146.5698 23.0652,146.8567 L23.0652,146.6064 Q23.0652,145.7764 22.6105,145.3247 Q22.1558,144.873 21.3135,144.873 Q20.0439,144.873 19.2413,145.99 Q18.4387,147.1069 18.4387,148.8953 Q18.4387,150.769 19.3665,151.8768 Q20.2942,152.9846 21.8384,152.9846 Q22.3267,152.9846 22.7844,152.8412 Q23.2422,152.6978 23.6633,152.4109 L24.2249,153.4851 Q23.7305,153.8208 23.1476,153.9886 Q22.5647,154.1565 21.8994,154.1565 Q19.7632,154.1565 18.4937,152.7344 Q17.2241,151.3123 17.2241,148.8953 Q17.2241,146.5332 18.3655,145.1141 Q19.5068,143.6951 21.3867,143.6951 Q22.7173,143.6951 23.4894,144.4977 Q24.2615,145.3003 24.2615,146.6858 Z " fill="#000000"/><text fill="#D8BC00" font-family="Open Sans,Avenir,Nunito,Arial,Helvetica,SansSerif" font-size="12.5" font-weight="bold" lengthAdjust="spacing" textLength="116.6667" x="38.5417" y="153.2878">UmlClassDiagram</text><line style="stroke:#5E5E5E;stroke-width:1.0416666666666667;" x1="8.3333" x2="160.4167" y1="164.2578" y2="164.2578"/><line style="stroke:#5E5E5E;stroke-width:1.0416666666666667;" x1="8.3333" x2="160.4167" y1="172.5911" y2="172.5911"/><!--MD5=[51c93b5906ba0daa295218a974cfaf57]
class UmlMethodGroup--><rect codeLine="16" fill="#282828" height="48.055" id="UmlMethodGroup" rx="8.3333" ry="8.3333" style="stroke:#5E5E5E;stroke-width:1.0416666666666667;" width="152.0833" x="197.9167" y="132.8695"/><rect fill="#1B1B1A" height="31.3883" rx="8.3333" ry="8.3333" style="stroke:#1B1B1A;stroke-width:1.0416666666666667;" width="152.0833" x="197.9167" y="132.8695"/><rect fill="#1B1B1A" height="8.3333" style="stroke:#1B1B1A;stroke-width:1.0416666666666667;" width="152.0833" x="197.9167" y="155.9245"/><rect codeLine="16" fill="none" height="48.055" id="UmlMethodGroup" rx="8.3333" ry="8.3333" style="stroke:#5E5E5E;stroke-width:1.0416666666666667;" width="152.0833" x="197.9167" y="132.8695"/><ellipse cx="212.5" cy="148.5636" fill="#3380B9" rx="10.4167" ry="10.4167" style="stroke:#004D86;stroke-width:1.0416666666666667;"/><path d="M213.7512,148.8831 Q213.7512,148.1934 213.4399,147.8027 Q213.1287,147.4121 212.5854,147.4121 Q212.0422,147.4121 211.734,147.8027 Q211.4258,148.1934 211.4258,148.8831 Q211.4258,149.5789 211.734,149.9695 Q212.0422,150.3601 212.5854,150.3601 Q213.1287,150.3601 213.4399,149.9695 Q213.7512,149.5789 213.7512,148.8831 Z M214.8865,151.3855 L213.6902,151.3855 L213.6902,150.885 Q213.4583,151.2085 213.1439,151.358 Q212.8296,151.5076 212.3901,151.5076 Q211.3892,151.5076 210.7758,150.7874 Q210.1624,150.0671 210.1624,148.8831 Q210.1624,147.7051 210.7727,146.9879 Q211.3831,146.2708 212.3901,146.2708 Q212.8235,146.2708 213.1531,146.4203 Q213.4827,146.5698 213.6902,146.8567 L213.6902,146.6064 Q213.6902,145.7764 213.2355,145.3247 Q212.7808,144.873 211.9385,144.873 Q210.6689,144.873 209.8663,145.99 Q209.0637,147.1069 209.0637,148.8953 Q209.0637,150.769 209.9915,151.8768 Q210.9192,152.9846 212.4634,152.9846 Q212.9517,152.9846 213.4094,152.8412 Q213.8672,152.6978 214.2883,152.4109 L214.8499,153.4851 Q214.3555,153.8208 213.7726,153.9886 Q213.1897,154.1565 212.5244,154.1565 Q210.3882,154.1565 209.1187,152.7344 Q207.8491,151.3123 207.8491,148.8953 Q207.8491,146.5332 208.9905,145.1141 Q210.1318,143.6951 212.0117,143.6951 Q213.3423,143.6951 214.1144,144.4977 Q214.8865,145.3003 214.8865,146.6858 Z " fill="#000000"/><text fill="#D8BC00" font-family="Open Sans,Avenir,Nunito,Arial,Helvetica,SansSerif" font-size="12.5" font-weight="bold" lengthAdjust="spacing" textLength="114.5833" x="229.1667" y="153.2878">UmlMethodGroup</text><line style="stroke:#5E5E5E;stroke-width:1.0416666666666667;" x1="198.9583" x2="348.9583" y1="164.2578" y2="164.2578"/><line style="stroke:#5E5E5E;stroke-width:1.0416666666666667;" x1="198.9583" x2="348.9583" y1="172.5911" y2="172.5911"/><!--MD5=[5af461aa283c649a7c479eeb97492991]
class UmlNote--><rect codeLine="18" fill="#282828" height="48.055" id="UmlNote" rx="8.3333" ry="8.3333" style="stroke:#5E5E5E;stroke-width:1.0416666666666667;" width="93.75" x="37.5" y="282.8695"/><rect fill="#1B1B1A" height="31.3883" rx="8.3333" ry="8.3333" style="stroke:#1B1B1A;stroke-width:1.0416666666666667;" width="93.75" x="37.5" y="282.8695"/><rect fill="#1B1B1A" height="8.3333" style="stroke:#1B1B1A;stroke-width:1.0416666666666667;" width="93.75" x="37.5" y="305.9245"/><rect codeLine="18" fill="none" height="48.055" id="UmlNote" rx="8.3333" ry="8.3333" style="stroke:#5E5E5E;stroke-width:1.0416666666666667;" width="93.75" x="37.5" y="282.8695"/><ellipse cx="52.0833" cy="298.5636" fill="#3380B9" rx="10.4167" ry="10.4167" style="stroke:#004D86;stroke-width:1.0416666666666667;"/><path d="M53.3346,298.8831 Q53.3346,298.1934 53.0233,297.8027 Q52.712,297.4121 52.1688,297.4121 Q51.6256,297.4121 51.3173,297.8027 Q51.0091,298.1934 51.0091,298.8831 Q51.0091,299.5789 51.3173,299.9695 Q51.6256,300.3601 52.1688,300.3601 Q52.712,300.3601 53.0233,299.9695 Q53.3346,299.5789 53.3346,298.8831 Z M54.4698,301.3855 L53.2735,301.3855 L53.2735,300.885 Q53.0416,301.2085 52.7273,301.358 Q52.4129,301.5076 51.9735,301.5076 Q50.9725,301.5076 50.3591,300.7874 Q49.7457,300.0671 49.7457,298.8831 Q49.7457,297.7051 50.356,296.9879 Q50.9664,296.2708 51.9735,296.2708 Q52.4068,296.2708 52.7364,296.4203 Q53.066,296.5698 53.2735,296.8567 L53.2735,296.6064 Q53.2735,295.7764 52.8188,295.3247 Q52.3641,294.873 51.5218,294.873 Q50.2523,294.873 49.4497,295.99 Q48.6471,297.1069 48.6471,298.8953 Q48.6471,300.769 49.5748,301.8768 Q50.5025,302.9846 52.0467,302.9846 Q52.535,302.9846 52.9928,302.8412 Q53.4505,302.6978 53.8717,302.4109 L54.4332,303.4851 Q53.9388,303.8208 53.3559,303.9886 Q52.773,304.1565 52.1077,304.1565 Q49.9715,304.1565 48.702,302.7344 Q47.4325,301.3123 47.4325,298.8953 Q47.4325,296.5332 48.5738,295.1141 Q49.7152,293.6951 51.5951,293.6951 Q52.9256,293.6951 53.6977,294.4977 Q54.4698,295.3003 54.4698,296.6858 Z " fill="#000000"/><text fill="#D8BC00" font-family="Open Sans,Avenir,Nunito,Arial,Helvetica,SansSerif" font-size="12.5" font-weight="bold" lengthAdjust="spacing" textLength="56.25" x="68.75" y="303.2878">UmlNote</text><line style="stroke:#5E5E5E;stroke-width:1.0416666666666667;" x1="38.5417" x2="130.2083" y1="314.2578" y2="314.2578"/><line style="stroke:#5E5E5E;stroke-width:1.0416666666666667;" x1="38.5417" x2="130.2083" y1="322.5911" y2="322.5911"/><!--MD5=[828908ef1c1f82a4e3b40259c850aed4]
link UmlClassDiagram to UmlMethodGroup--><!--MD5=[2f0aa5290014b1ba919031363a9a7cce]
link UmlClassDiagram to UmlNote--><!--MD5=[02d16809471193c42dc1ffc65e210c21]
@startuml

    !include ../lexakai.theme
    
    title "com.telenav.lexakai.annotations"
    
    enum UmlNote.Align
    {
        BOTTOM
        LEFT
        RIGHT
        TOP
    }
    
    annotation UmlClassDiagram
    
    annotation UmlMethodGroup
    
    annotation UmlNote
    
@enduml

@startuml









skinparam backgroundColor #333333






skinparam  {
    defaultFontName   "Open Sans,Avenir,Nunito,Arial,Helvetica,SansSerif"
    defaultFontSize   12
    defaultTextAlignment left
    shadowing false
    RoundCorner 10
    TitleFontSize 18
}

skinparam defaultFontName       "Open Sans,Avenir,Nunito,Arial,Helvetica,SansSerif"
skinparam defaultFontSize       12
skinparam dpi                   100
skinparam shadowing             false
skinparam roundcorner           16
skinparam ParticipantPadding    40
skinparam BoxPadding            40
skinparam Padding               3
skinparam ArrowColor            #545454
skinparam stereotype {
    CBackgroundColor #0066cf
    CBorderColor #0086ef
    ABackgroundColor #C8Ac00
    ABorderColor #D8Bc00
    IBackgroundColor #008400
    IBorderColor #239c23
    EBackgroundColor #cf6300
    EBorderColor #ef8300
    NBackgroundColor #3380b9
    NBorderColor #004d86
}
skinparam title {
	FontColor	                 #c0c0c0
 	BorderColor                  #545454
	FontSize	    	         20
	BorderRoundCorner            16
	BorderThickness 	         1
	BackgroundColor              #48494b
}


skinparam legend {
	BackgroundColor #303030
	BorderColor #404040
	FontColor #a0a0a0
}

	skinparam swimlane {
	BorderColor #5e5e5e
	BorderThickness 2
	TitleBackgroundColor  #6d6d6d-#484848
	TitleFontColor #303030
}

skinparam activity {
		FontColor #C8Ac00
	BorderColor #333333
	BackgroundColor #333333-#333333
	BarColor #00FF00
	StartColor #0060a8
	EndColor #0060a8
	DiamondBackgroundColor #6d6d6d-#3a3a3a
  	DiamondBorderColor #3a3a3a
  	DiamondFontColor #fefefe
}


skinparam participant {
		FontColor #C8Ac00
	BorderColor #333333
	BackgroundColor #333333-#333333
	ParticipantBorderThickness 2
}


skinparam actor {
		FontColor #C8Ac00
	BorderColor #333333
	BackgroundColor #333333-#333333
}


skinparam arrow {
	Thickness 1.5
	Color #545454
	FontColor #a0a0a0
    FontStyle bold
    MessageAlignment center
}



skinparam sequence {
	BorderColor #303030
	TitleFontColor #303030
	BackgroundColor #333333
	StartColor #303030
	EndColor #303030
	BoxBackgroundColor #333333
	BoxBorderColor #484848
	BoxFontColor #484848
	LifeLineBorderColor #484848
	LifeLineBorderThickness 2
	LifeLineBackgroundColor #3a3a3a
	GroupBorderColor #484848
	GroupFontColor #484848
	GroupHeaderFontColor #0060a8
	GroupBackgroundColor #484848
	GroupHeaderBackgroundColor #333333
	DividerBackgroundColor #484848
    DividerBorderColor #484848
    DividerBorderThickness 2
    DividerFontColor #D8Bc00
	ReferenceBackgroundColor #333333
	ReferenceBorderColor #484848
	ReferenceFontColor #fefefe
	ReferenceHeaderBackgroundColor #484848
}


skinparam partition {
	BorderColor #303030
	FontColor #333333
	BackgroundColor #333333
}


skinparam collections {
		FontColor #C8Ac00
	BorderColor #333333
	BackgroundColor #333333-#333333
}


skinparam control {
		FontColor #C8Ac00
	BorderColor #333333
	BackgroundColor #333333-#333333
}


skinparam entity {
		FontColor #C8Ac00
	BorderColor #333333
	BackgroundColor #333333-#333333
}


skinparam boundary {
		FontColor #C8Ac00
	BorderColor #333333
	BackgroundColor #333333-#333333
}


skinparam agent {
	BackgroundColor #ff8000
	BorderColor #ff9933
	FontColor #484848
}


skinparam note {
	BorderThickness 1
	BackgroundColor #1b1b1a
	BorderColor #5e5e5e
	FontSize 11
	FontColor #a0a0a0
}


skinparam artifact {
	BorderThickness 10
	BorderColor #5e5e5e
	BackgroundColor #1b1b1a
	FontColor #D8Bc00
}


skinparam component {
		FontColor #C8Ac00
	BorderColor #333333
	BackgroundColor #333333-#333333
}


skinparam interface {
	BackgroundColor  #008400
	BorderColor  #007F00
	FontColor #484848
}


skinparam storage {
	BackgroundColor #ff8000
  	BorderColor #cc6600
	FontColor #222222
}


skinparam node {
	BackgroundColor #333333
	BorderColor #333333
	FontColor #C8Ac00
}


skinparam cloud {
	BackgroundColor #484848-black
	BorderColor #484848
	FontColor #D8Bc00
}


skinparam database {
		FontColor #C8Ac00
	BorderColor #333333
	BackgroundColor #333333-#333333
	BackgroundColor  #333333
}


skinparam class {
		FontColor #C8Ac00
	BorderColor #333333
	BackgroundColor #333333-#333333
	HeaderBackgroundColor #1b1b1a
    BackgroundColor #282828
    BorderColor #5e5e5e
 	StereotypeFontColor #a0a0a0
    StereotypeFontStyle bold
	BorderThickness 1
	AttributeFontColor #D8Bc00
	AttributeFontSize 11
    FontColor #D8Bc00
    FontStyle bold
}


skinparam object {
		FontColor #C8Ac00
	BorderColor #333333
	BackgroundColor #333333-#333333
	StereotypeFontColor #484848
	BorderThickness 1
	AttributeFontColor #fefefe
	AttributeFontSize 11
}


skinparam usecase {
		FontColor #C8Ac00
	BorderColor #333333
	BackgroundColor #333333-#333333
	BorderThickness 2
	StereotypeFontColor #303030
}


skinparam rectangle {
		FontColor #C8Ac00
	BorderColor #333333
	BackgroundColor #333333-#333333
	BackgroundColor #333333
	BorderThickness 2
	StereotypeFontColor #303030
}


skinparam package {
		FontColor #C8Ac00
	BorderColor #333333
	BackgroundColor #333333-#333333
	BackgroundColor #333333
	BorderThickness 2
}


skinparam folder {
	BackgroundColor #6d6d6d
  	BorderColor #ff8000
	FontColor #ff8000
	BorderThickness 2
}


skinparam frame {
	BackgroundColor #6d6d6d
  	BorderColor #0060a8
	FontColor #0060a8
	BorderThickness 2
}


skinparam state {
		FontColor #C8Ac00
	BorderColor #333333
	BackgroundColor #333333-#333333
	StartColor #0060a8
	EndColor #0060a8
	AttributeFontColor #fefefe
	AttributeFontSize 11
}


skinparam queue {
		FontColor #C8Ac00
	BorderColor #333333
	BackgroundColor #333333-#333333
}


skinparam card {
	BackgroundColor #0060a8
	BorderColor #004d86
	FontColor $INFO_TEXT
}


skinparam file {
	BackgroundColor #6d6d6d-#484848
	BorderColor #0060a8
	FontColor #fefefe
}


skinparam stack {
		FontColor #C8Ac00
	BorderColor #333333
	BackgroundColor #333333-#333333
}

    
    title "com.telenav.lexakai.annotations"
    
    enum UmlNote.Align
    {
        BOTTOM
        LEFT
        RIGHT
        TOP
    }
    
    annotation UmlClassDiagram
    
    annotation UmlMethodGroup
    
    annotation UmlNote
    
@enduml

PlantUML version 1.2021.01(Tue Feb 02 00:55:08 MST 2021)
(GPL source distribution)
Java Runtime: Java(TM) SE Runtime Environment
JVM: Java HotSpot(TM) 64-Bit Server VM
Default Encoding: UTF-8
Language: en
Country: US
--></g></svg>